<svg width="998" height="451" viewBox="0 0 998 451" fill="none" xmlns="http://www.w3.org/2000/svg">
  <style>
    #tree {
        transform-origin:9% 100%;
        animation: tilt 4s ease-in-out infinite alternate;
    }
    #tree_2 {
        transform-origin:21% 100%;
        animation: tilt 4s ease-in-out -1s infinite alternate;
    }
    #tree_3 {
        transform-origin:86% 100%;
        animation: tilt 4s ease-in-out -.5s infinite alternate;
    }
    #tree_4 {
        transform-origin:92% 100%;
        animation: tilt 4s ease-in-out -.5s infinite alternate;
    }
    #tree_5 {
        transform-origin:78% 100%;
        animation: tilt 4s ease-in-out -.5s infinite alternate;
    }
    #tree_6 {
        transform-origin:14% 100%;
        animation: tilt 4s ease-in-out -.5s infinite alternate;
    }
    #birds{
        transform-origin: -50% 20%;
        animation: move 8s ease-in -.5s infinite;
    }

    @keyframes move{
        from{
            transform:rotate(-5deg) translate(50%,50%);
            opacity:0;            
        }
        to{
            transform:rotate(10deg) translate(-50%,-50%);
            opacity:1;
        }
    }
    @keyframes tilt{
        to{
            transform:rotate(-6deg);
        }
    }
  </style>
<g id="chat_bg" clip-path="url(#clip0)">
<g id="Vector">
<path fill-rule="evenodd" clip-rule="evenodd" d="M757.154 286.674L848.792 179.238L871.992 206.856V181.558H902.151V242.76L921.871 266.236V449.513H757.154V286.674ZM823.272 359.461H856.912V389.194H823.272V359.461ZM856.912 307.996H823.272V337.257H856.912V307.996Z" fill="#666666"/>
<path fill-rule="evenodd" clip-rule="evenodd" d="M519.154 286.674L610.792 179.238L633.992 206.856V181.558H664.151V242.76L683.871 266.236V449.513H519.154V286.674ZM585.272 359.461H618.912V389.194H585.272V359.461ZM618.912 307.996H585.272V337.257H618.912V307.996Z" fill="#666666"/>
<path fill-rule="evenodd" clip-rule="evenodd" d="M226.702 231.921L349.153 88.36L380.154 125.265V91.4602H420.454V173.242L446.804 204.611V449.513H226.702V231.921ZM315.053 329.181H360.003V368.912H315.053V329.181ZM360.003 260.412H315.053V299.512H360.003V260.412Z" fill="#666666"/>
</g>
<g id="trees">
<g id="tree">
<path id="Vector_2" d="M81.9552 377.033C113.388 377.033 138.87 325.04 138.87 260.903C138.87 196.767 113.388 144.774 81.9552 144.774C50.522 144.774 25.0403 196.767 25.0403 260.903C25.0403 325.04 50.522 377.033 81.9552 377.033Z" fill="#4D4D4D"/>
<path id="Vector_3" d="M88.2946 450.808C65.53 314.223 88.065 178.135 88.2952 176.776L90.5622 177.16C90.3325 178.516 67.8638 314.237 90.5627 450.431L88.2946 450.808Z" fill="#808080"/>
<path id="Vector_4" d="M132.582 236.901L81.1147 264.43L82.1993 266.458L133.667 238.928L132.582 236.901Z" fill="#808080"/>
<path id="Vector_5" d="M27.8824 250.691L26.7972 252.719L78.2572 280.262L79.3424 278.235L27.8824 250.691Z" fill="#808080"/>
</g>
<g id="tree_2">
<path id="Vector_6" d="M216.754 349.922C259.767 349.922 294.637 278.774 294.637 191.008C294.637 103.242 259.767 32.0943 216.754 32.0943C173.74 32.0943 138.87 103.242 138.87 191.008C138.87 278.774 173.74 349.922 216.754 349.922Z" fill="#4D4D4D"/>
<path id="Vector_7" d="M225.847 450.808C194.707 263.971 225.532 77.8159 225.847 75.9576L228.114 76.3416C227.8 78.1965 197.041 263.985 228.115 450.431L225.847 450.808Z" fill="#808080"/>
<path id="Vector_8" d="M286.233 158.535L215.803 196.207L216.888 198.235L287.317 160.563L286.233 158.535Z" fill="#808080"/>
<path id="Vector_9" d="M142.559 177.407L141.474 179.435L211.893 217.125L212.979 215.097L142.559 177.407Z" fill="#808080"/>
</g>
<g id="tree_3">
<path id="Vector_10" d="M871.029 411.846C887.1 411.846 900.129 385.264 900.129 352.472C900.129 319.68 887.1 293.098 871.029 293.098C854.958 293.098 841.93 319.68 841.93 352.472C841.93 385.264 854.958 411.846 871.029 411.846Z" fill="#808080"/>
<path id="Vector_11" d="M868.342 449.658C879.997 379.733 868.459 310.06 868.342 309.365L866.075 309.749C866.192 310.441 877.663 379.748 866.074 449.281L868.342 449.658Z" fill="#4D4D4D"/>
<path id="Vector_12" d="M845.41 339.705L844.325 341.733L870.639 355.807L871.724 353.779L845.41 339.705Z" fill="#4D4D4D"/>
<path id="Vector_13" d="M898.411 346.755L872.1 360.838L873.185 362.865L899.496 348.783L898.411 346.755Z" fill="#4D4D4D"/>
</g>
<g id="tree_4">
<path id="Vector_14" d="M940.946 377.033C972.38 377.033 997.861 325.04 997.861 260.903C997.861 196.767 972.38 144.774 940.946 144.774C909.513 144.774 884.032 196.767 884.032 260.903C884.032 325.04 909.513 377.033 940.946 377.033Z" fill="#4D4D4D"/>
<path id="Vector_15" d="M934.607 450.808C957.371 314.223 934.837 178.135 934.606 176.776L932.339 177.16C932.569 178.516 955.038 314.237 932.339 450.431L934.607 450.808Z" fill="#808080"/>
<path id="Vector_16" d="M890.319 236.901L889.234 238.928L940.702 266.458L941.787 264.43L890.319 236.901Z" fill="#808080"/>
<path id="Vector_17" d="M995.019 250.691L943.559 278.235L944.644 280.262L996.104 252.719L995.019 250.691Z" fill="#808080"/>
</g>
<g id="tree_5">
<path id="Vector_18" d="M806.148 349.922C849.162 349.922 884.032 278.774 884.032 191.008C884.032 103.242 849.162 32.0943 806.148 32.0943C763.134 32.0943 728.265 103.242 728.265 191.008C728.265 278.774 763.134 349.922 806.148 349.922Z" fill="#4D4D4D"/>
<path id="Vector_19" d="M797.055 450.808C828.195 263.971 797.369 77.8159 797.054 75.9576L794.787 76.3416C795.102 78.1965 825.861 263.985 794.787 450.431L797.055 450.808Z" fill="#808080"/>
<path id="Vector_20" d="M736.669 158.535L735.584 160.563L806.013 198.235L807.098 196.207L736.669 158.535Z" fill="#808080"/>
<path id="Vector_21" d="M880.342 177.407L809.923 215.097L811.008 217.124L881.427 179.434L880.342 177.407Z" fill="#808080"/>
</g>
<g id="tree_6">
<path id="Vector_22" d="M151.872 411.846C167.943 411.846 180.972 385.264 180.972 352.472C180.972 319.68 167.943 293.098 151.872 293.098C135.801 293.098 122.773 319.68 122.773 352.472C122.773 385.264 135.801 411.846 151.872 411.846Z" fill="#808080"/>
<path id="Vector_23" d="M154.559 449.658C142.905 379.733 154.442 310.06 154.56 309.365L156.827 309.749C156.71 310.441 145.239 379.748 156.828 449.281L154.559 449.658Z" fill="#4D4D4D"/>
<path id="Vector_24" d="M177.491 339.705L151.178 353.78L152.262 355.807L178.576 341.733L177.491 339.705Z" fill="#4D4D4D"/>
<path id="Vector_25" d="M124.491 346.755L123.406 348.783L149.716 362.865L150.802 360.838L124.491 346.755Z" fill="#4D4D4D"/>
</g>
</g>
<g id="birds">
<path d="M589.604 101.466L598.81 94.1031C591.659 93.3141 588.72 97.2144 587.518 100.301C581.931 97.9815 575.848 101.022 575.848 101.022L594.267 107.709C593.338 105.227 591.721 103.061 589.604 101.466Z" fill="#808080"/>
<path d="M364.604 36.4659L373.81 29.1031C366.659 28.3141 363.72 32.2144 362.518 35.3015C356.931 32.9815 350.848 36.0219 350.848 36.0219L369.267 42.7086C368.338 40.2267 366.721 38.0612 364.604 36.4659Z" fill="#808080"/>
<path d="M731.604 7.4659L740.81 0.103112C733.659 -0.685888 730.72 3.21438 729.518 6.30148C723.931 3.98148 717.848 7.02193 717.848 7.02193L736.267 13.7086C735.338 11.2267 733.721 9.0612 731.604 7.4659Z" fill="#808080"/>
</g>
<g id="Vector_27">
<path d="M750.191 437.052C747.744 437.052 745.34 437.697 743.221 438.922C741.07 436.976 738.4 435.697 735.536 435.24C732.671 434.782 729.736 435.166 727.085 436.344C724.435 437.523 722.184 439.446 720.605 441.879C719.026 444.312 718.187 447.151 718.191 450.052H764.14C763.89 446.523 762.312 443.22 759.723 440.808C757.135 438.395 753.729 437.054 750.191 437.052Z" fill="#808080"/>
<path d="M283.191 437.052C280.744 437.052 278.34 437.697 276.221 438.922C274.07 436.976 271.4 435.697 268.536 435.24C265.671 434.782 262.736 435.166 260.085 436.344C257.435 437.523 255.184 439.446 253.605 441.879C252.026 444.312 251.187 447.151 251.191 450.052H297.14C296.89 446.523 295.312 443.22 292.723 440.808C290.135 438.395 286.729 437.054 283.191 437.052Z" fill="#808080"/>
<path d="M522.191 437.052C519.744 437.052 517.34 437.697 515.221 438.922C513.07 436.976 510.4 435.697 507.536 435.24C504.671 434.782 501.736 435.166 499.085 436.344C496.435 437.523 494.184 439.446 492.605 441.879C491.026 444.312 490.187 447.151 490.191 450.052H536.14C535.89 446.523 534.312 443.22 531.723 440.808C529.135 438.395 525.729 437.054 522.191 437.052Z" fill="#808080"/>
</g>
<g id="Vector_28">
<path d="M471.759 404.228H339.191V408.504H359.866V449.13H364.142V408.504H444.669V449.13H448.946V408.504H471.759V404.228Z" fill="#808080"/>
<path d="M472.02 391.434H339.452V395.71H472.02V391.434Z" fill="#808080"/>
<path d="M472.02 380.743H339.452V385.019H472.02V380.743Z" fill="#808080"/>
<path d="M472.02 370.052H339.452V374.328H472.02V370.052Z" fill="#808080"/>
<path d="M678.759 404.228H546.191V408.504H566.866V449.13H571.142V408.504H651.669V449.13H655.946V408.504H678.759V404.228Z" fill="#808080"/>
<path d="M679.02 391.434H546.452V395.71H679.02V391.434Z" fill="#808080"/>
<path d="M679.02 380.743H546.452V385.019H679.02V380.743Z" fill="#808080"/>
<path d="M679.02 370.052H546.452V374.328H679.02V370.052Z" fill="#808080"/>
</g>
<path id="surface" d="M963.951 448.62H0V450.62H963.951V448.62Z" fill="#808080"/>
</g>
<defs>
<clipPath id="clip0">
<rect width="997.861" height="450.808" fill="white"/>
</clipPath>
</defs>
</svg>
